<svg viewBox="0 0 57 57" fill="none" xmlns="http://www.w3.org/2000/svg">
    <path d="M31.5056 34.1965C31.2681 33.5586 31.1383 32.8682 31.1383 32.1476L30.3126 23.1725M31.5056 34.1965C31.2679 34.8477 31.1383 35.5509 31.1383 36.2843C31.1383 39.6481 33.8652 42.375 37.229 42.375C40.5927 42.375 43.3196 39.6481 43.3196 36.2843C43.3196 35.4847 43.1655 34.7211 42.8854 34.0215M31.5056 34.1965C32.3577 31.861 34.5986 30.1937 37.229 30.1937C39.633 30.1937 41.7116 31.5864 42.7022 33.6091C42.7682 33.7438 42.8293 33.8814 42.8854 34.0215M25.4763 34.1965C25.7254 33.5415 25.8618 32.8309 25.8618 32.0884L26.7464 23.1735M30.3126 23.1725C29.7066 22.3787 29.5762 21.8666 28.5004 21.8666C27.4242 21.8666 27.3524 22.3792 26.7464 23.1735M30.3126 23.1725V20.4986C30.3126 17.2547 32.9423 14.625 36.1862 14.625C39.43 14.625 41.8765 17.2547 41.8765 20.4986L42.7022 32.1476L42.8854 34.0215M26.7464 23.1735V20.5577C26.7464 17.2811 24.0903 14.625 20.8138 14.625C17.5372 14.625 15.1165 17.2811 15.1165 20.5577L14.2318 32.0884L13.9964 34.3428M31.1383 32.3085C30.5323 31.5147 29.5762 31.0026 28.5004 31.0026C27.4242 31.0026 26.4677 31.5152 25.8618 32.3095M13.9964 34.3428C13.7915 34.9526 13.6804 35.6055 13.6804 36.2843C13.6804 39.6481 16.4073 42.375 19.7711 42.375C23.1349 42.375 25.8618 39.6481 25.8618 36.2843C25.8618 32.9206 23.1349 30.1937 19.7711 30.1937C17.3122 30.1937 15.1937 31.6507 14.2318 33.7485C14.1433 33.9414 14.0647 34.1397 13.9964 34.3428ZM28.5004 29.0413V28.0617M41.0356 36.2843C41.0356 38.3867 39.3313 40.091 37.229 40.091C35.1266 40.091 33.4223 38.3867 33.4223 36.2843C33.4223 34.182 35.1266 32.4777 37.229 32.4777C39.3313 32.4777 41.0356 34.182 41.0356 36.2843ZM23.5778 36.2843C23.5778 38.3867 21.8735 40.091 19.7711 40.091C17.6687 40.091 15.9644 38.3867 15.9644 36.2843C15.9644 34.182 17.6687 32.4777 19.7711 32.4777C21.8735 32.4777 23.5778 34.182 23.5778 36.2843Z"
          stroke="white" stroke-width="1.15625" stroke-linecap="round" stroke-linejoin="round"/>
    <circle cx="28.5" cy="28.5" r="27.5" stroke="white" stroke-width="2"/>
</svg>
