<svg  viewBox="0 0 25 25" fill="none" xmlns="http://www.w3.org/2000/svg">
<path d="M15.5687 23.7733C13.4739 23.9058 11.4126 23.9049 9.34123 23.7708V23.7667V23.7518V23.7367V23.7216V23.7064V23.6911V23.6757V23.6602V23.6447V23.629V23.6133V23.5975V23.5816V23.5656V23.5495V23.5333V23.5171V23.5008V23.4844V23.4679V23.4513V23.4347V23.418V23.4012V23.3843V23.3673V23.3503V23.3332V23.316V23.2988V23.2814V23.264V23.2466V23.229V23.2114V23.1937V23.1759V23.1581V23.1402V23.1222V23.1042V23.0861V23.0679V23.0497V23.0314V23.013V22.9946V22.976V22.9575V22.9389V22.9202V22.9014V22.8826V22.8637V22.8448V22.8258V22.8067V22.7876V22.7684V22.7492V22.7299V22.7106V22.6912V22.6717V22.6522V22.6327V22.613V22.5934V22.5736V22.5539V22.534V22.5142V22.4943V22.4743V22.4543V22.4342V22.4141V22.3939V22.3737V22.3534V22.3331V22.3128V22.2924V22.2719V22.2515V22.2309V22.2104V22.1898V22.1691V22.1484V22.1277V22.107V22.0862V22.0653V22.0444V22.0235V22.0026V21.9816V21.9606V21.9395V21.9184V21.8973V21.8761V21.855V21.8337V21.8125V21.7912V21.7699V21.7486V21.7272V21.7058V21.6844V21.6629V21.6414V21.6199V21.5984V21.5769V21.5553V21.5337V21.5121V21.4904V21.4688V21.4471V21.4254V21.4036V21.3819V21.3601V21.3383V21.3165V21.2947V21.2729V21.251V21.2292V21.2073V21.1854V21.1635V21.1416V21.1196V21.0977V21.0757V21.0537V21.0318V21.0098V20.9878V20.9658V20.9438V20.9217V20.8997V20.8777V20.8556V20.8336V20.8115V20.7895V20.7674V20.7454V20.7233V20.7013V20.6792V20.6571V20.6351V20.613V20.5909V20.5689V20.5468V20.5248V20.5027V20.4807V20.4586V20.4366V20.4146V20.3925V20.3705V20.3485V20.3265V20.3045V20.2825V20.2606V20.2386V20.2167V20.1947V20.1728V20.1509V20.129V20.1071V20.0852V20.0634V20.0415V20.0197V19.9979V19.9761V19.9543V19.9326V19.9108V19.8891V19.8674V19.8458V19.8241V19.8025V19.7809V19.7593V19.7377V19.7162V19.6947V19.6732V19.6518V19.6303V19.6089V19.5875V19.5662V19.5449V19.5236V19.5023V19.4811V19.4599V19.4387V19.4176V19.3965V19.3754V19.3544V19.3334V19.3125V19.2915V19.2706V19.2498V19.229V19.2082V19.1875V19.1668V19.1461V19.1255V19.1049V19.0844V19.0639V19.0434V19.023V19.0027V18.9824V18.9621V18.9419V18.9217V18.9016V18.8815V18.8614V18.8414V18.8215V18.8016V18.7818V18.762V18.7423V18.7226V18.7029V18.6834V18.6638V18.6444V18.625V18.6056V18.5863V18.567V18.5479V18.5287V18.5096V18.4906V18.4717V18.4528V18.434V18.4152V18.3965V18.3778V18.3592V18.3407V18.3223V18.3039V18.2855V18.2673V18.2491V18.231V18.2129V18.1949V18.177V18.1591V18.1413V18.1236V18.106V18.0884V18.0709V18.0535V18.0361V18.0189V18.0017V17.9845V17.9675V17.9505V17.9336V17.9168V17.9001V17.8834V17.8668V17.8503V17.8339V17.8175V17.8013V17.7851V17.769V17.753V17.737V17.7212V17.7054V17.6898V17.6742V17.6587V17.6432V17.6279V17.6127V17.5975V17.5825V17.5675V17.5526V17.5378V17.5231V17.5085V17.494V17.4796V17.4653V17.451V17.4369V17.4229V17.4089V17.3951V17.3813V17.3677V17.3541V17.3407V17.3273V17.3141V17.3009V17.2879V17.275V17.2621V17.2494V17.2367V17.2242V17.2118V17.1995V17.1873V17.1751V17.1631V17.1513V17.1395V17.1278V17.1162V17.1048V17.0934V17.0822V17.0711V17.0601V17.0492V17.0384V17.0278V17.0172V17.0068V16.9965V16.9863V16.9762V16.9662V16.9564V16.9466V16.937V16.9275V16.9182V16.9089V16.8998V16.8908V16.8819V16.8732V16.8645V16.856V16.8476V16.8394V16.8313V16.8233V16.8154V16.8076V16.8V16.7925V16.7852V16.7779V16.7708V16.7639V16.7571V16.7504V16.7438V16.7374V16.7311V16.7249C9.34123 16.5416 9.44309 16.2719 9.68673 16.0277C9.93051 15.7834 10.1986 15.6824 10.3791 15.6824H10.3852H10.3914H10.3975H10.4037H10.4098H10.4161H10.4223H10.4285H10.4348H10.4411H10.4475H10.4538H10.4602H10.4666H10.473H10.4794H10.4859H10.4924H10.4989H10.5054H10.5119H10.5185H10.5251H10.5317H10.5384H10.545H10.5517H10.5584H10.5651H10.5719H10.5786H10.5854H10.5922H10.599H10.6059H10.6127H10.6196H10.6265H10.6335H10.6404H10.6474H10.6544H10.6614H10.6684H10.6755H10.6825H10.6896H10.6967H10.7038H10.711H10.7181H10.7253H10.7325H10.7397H10.747H10.7542H10.7615H10.7688H10.7761H10.7835H10.7908H10.7982H10.8056H10.813H10.8204H10.8278H10.8353H10.8427H10.8502H10.8577H10.8653H10.8728H10.8804H10.888H10.8955H10.9032H10.9108H10.9184H10.9261H10.9338H10.9415H10.9492H10.9569H10.9646H10.9724H10.9802H10.988H10.9958H11.0036H11.0114H11.0193H11.0271H11.035H11.0429H11.0508H11.0588H11.0667H11.0747H11.0826H11.0906H11.0986H11.1066H11.1147H11.1227H11.1308H11.1388H11.1469H11.155H11.1631H11.1712H11.1794H11.1875H11.1957H11.2039H11.2121H11.2203H11.2285H11.2367H11.245H11.2532H11.2615H11.2698H11.2781H11.2864H11.2947H11.3031H11.3114H11.3198H11.3281H11.3365H11.3449H11.3533H11.3617H11.3701H11.3786H11.387H11.3955H11.404H11.4124H11.4209H11.4294H11.4379H11.4465H11.455H11.4635H11.4721H11.4807H11.4892H11.4978H11.5064H11.515H11.5236H11.5323H11.5409H11.5496H11.5582H11.5669H11.5755H11.5842H11.5929H11.6016H11.6103H11.619H11.6278H11.6365H11.6452H11.654H11.6627H11.6715H11.6803H11.6891H11.6979H11.7067H11.7155H11.7243H11.7331H11.7419H11.7508H11.7596H11.7685H11.7773H11.7862H11.7951H11.8039H11.8128H11.8217H11.8306H11.8395H11.8484H11.8573H11.8663H11.8752H11.8841H11.8931H11.902H11.911H11.9199H11.9289H11.9379H11.9468H11.9558H11.9648H11.9738H11.9828H11.9918H12.0008H12.0098H12.0188H12.0278H12.0368H12.0459H12.0549H12.0639H12.073H12.082H12.0911H12.1001H12.1092H12.1182H12.1273H12.1364H12.1454H12.1545H12.1636H12.1726H12.1817H12.1908H12.1999H12.209H12.2181H12.2272H12.2362H12.2453H12.2544H12.2635H12.2726H12.2818H12.2909H12.3H12.3091H12.3182H12.3273H12.3364H12.3455H12.3546H12.3638H12.3729H12.382H12.3911H12.4002H12.4094H12.4185H12.4276H12.4367H12.4458H12.455H12.4641H12.4732H12.4823H12.4915H12.5006H12.5097H12.5188H12.5279H12.5371H12.5462H12.5553H12.5644H12.5735H12.5826H12.5918H12.6009H12.61H12.6191H12.6282H12.6373H12.6464H12.6555H12.6646H12.6737H12.6828H12.6919H12.701H12.7101H12.7191H12.7282H12.7373H12.7464H12.7554H12.7645H12.7736H12.7827H12.7917H12.8008H12.8098H12.8189H12.8279H12.837H12.846H12.855H12.8641H12.8731H12.8821H12.8911H12.9001H12.9092H12.9182H12.9272H12.9361H12.9451H12.9541H12.9631H12.9721H12.981H12.99H12.999H13.0079H13.0169H13.0258H13.0347H13.0437H13.0526H13.0615H13.0704H13.0793H13.0882H13.0971H13.106H13.1149H13.1238H13.1326H13.1415H13.1503H13.1592H13.168H13.1768H13.1857H13.1945H13.2033H13.2121H13.2209H13.2296H13.2384H13.2472H13.256H13.2647H13.2734H13.2822H13.2909H13.2996H13.3083H13.317H13.3257H13.3344H13.3431H13.3517H13.3604H13.369H13.3777H13.3863H13.3949H13.4035H13.4121H13.4207H13.4293H13.4378H13.4464H13.4549H13.4635H13.472H13.4805H13.489H13.4975H13.506H13.5145H13.5229H13.5314H13.5398H13.5482H13.5566H13.565H13.5734H13.5818H13.5902H13.5985H13.6069H13.6152H13.6235H13.6318H13.6401H13.6484H13.6567H13.665H13.6732H13.6814H13.6897H13.6979H13.7061H13.7142H13.7224H13.7306H13.7387H13.7468H13.7549H13.763H13.7711H13.7792H13.7872H13.7953H13.8033H13.8113H13.8193H13.8273H13.8353H13.8432H13.8512H13.8591H13.867H13.8749H13.8828H13.8907H13.8985H13.9064H13.9142H13.922H13.9298H13.9375H13.9453H13.953H13.9608H13.9685H13.9762H13.9839H13.9915H13.9992H14.0068H14.0144H14.022H14.0296H14.0371H14.0447H14.0522H14.0597H14.0672H14.0747H14.0821H14.0896H14.097H14.1044H14.1118H14.1191H14.1265H14.1338H14.1411H14.1484H14.1557H14.163H14.1702H14.1774H14.1846H14.1918H14.199H14.2061H14.2132H14.2203H14.2274H14.2345H14.2415H14.2486H14.2556H14.2626H14.2695H14.2765H14.2834H14.2903H14.2972H14.3041H14.3109H14.3177H14.3245H14.3313H14.3381H14.3448H14.3515H14.3582H14.3649H14.3716H14.3782H14.3848H14.3914H14.398H14.4045H14.4111H14.4176H14.4241H14.4305H14.437H14.4434H14.4498H14.4561H14.4625H14.4688H14.4751H14.4814H14.4877H14.4939H14.5001H14.5063H14.5124H14.5186H14.5247H14.5308C14.7114 15.6824 14.9794 15.7834 15.2232 16.0277C15.4668 16.2719 15.5687 16.5416 15.5687 16.7249V21.1218V21.1437V21.1657V21.1876V21.2095V21.2314V21.2533V21.2751V21.297V21.3188V21.3406V21.3624V21.3842V21.406V21.4277V21.4494V21.4711V21.4928V21.5145V21.5361V21.5577V21.6439V21.6654V21.6869V21.7083V21.7297V21.7511V21.7724V21.7938V21.815V21.8363V21.8575V21.8787V21.8999V21.921V21.9421V21.9632V21.9842V22.0052V22.0262V22.0471V22.068V22.0889V22.1097V22.1305V22.1512V22.1719V22.1926V22.2132V22.2338V22.2748V22.2952V22.3156V22.336V22.3563V22.3766V22.3968V22.417V22.4371V22.4572V22.4772V22.4972V22.5171V22.537V22.5569V22.5767V22.5964V22.6161V22.6357V22.6553V22.6748V22.6943V22.7137V22.733V22.7523V22.7716V22.7907V22.8099V22.8289V22.8479V22.8669V22.8858V22.9046V22.9234V22.9421V22.9607V22.9793V22.9978V23.0163V23.0346V23.053V23.0712V23.0894V23.1075V23.1256V23.1435V23.1615V23.1793V23.1971V23.2148V23.2324V23.25V23.2675V23.2849V23.3022V23.3195V23.3367V23.3538V23.3708V23.5043V23.5207V23.5369V23.5531V23.5692V23.5852V23.6011V23.6169V23.6327V23.6483V23.6639V23.6794V23.6948V23.7101V23.7253V23.7405V23.7555V23.7705V23.7733ZM7.2654 23.5816V23.5923C6.92097 23.5555 6.57578 23.515 6.22965 23.4708C4.71251 23.2773 3.74337 22.906 3.09758 22.382C2.47338 21.8756 2.0369 21.1329 1.77697 19.9451C0.759736 15.2966 1.01686 11.1581 1.24424 9.56856C1.26787 9.52892 1.30972 9.46678 1.37742 9.38027C1.53094 9.1841 1.76533 8.92828 2.08058 8.61758C2.70791 7.99931 3.58023 7.23694 4.57606 6.41326C6.5631 4.76971 8.97219 2.93915 10.7285 1.63148C11.7874 0.843117 13.2234 0.839787 14.2851 1.62319C16.056 2.92994 18.4864 4.76262 20.4785 6.40797C21.4771 7.23282 22.3463 7.99476 22.9634 8.61111C23.2738 8.92117 23.499 9.17329 23.6416 9.36336C23.6913 9.42949 23.7238 9.47881 23.7441 9.51247C23.8567 11.2041 24.1311 15.3394 23.2202 19.9665C22.9872 21.15 22.5542 21.887 21.929 22.3893C21.2777 22.9125 20.2953 23.2805 18.7745 23.4705C18.3961 23.5177 18.0196 23.5608 17.6445 23.5997V23.5852V23.5692V23.5531V23.5369V23.5207V23.5043V23.3708V23.3538V23.3367V23.3195V23.3022V23.2849V23.2675V23.25V23.2324V23.2148V23.1971V23.1793V23.1615V23.1435V23.1256V23.1075V23.0894V23.0712V23.053V23.0346V23.0163V22.9978V22.9793V22.9607V22.9421V22.8669V22.8479V22.8289V22.8099V22.7907V22.7716V22.7523V22.733V22.7137V22.6943V22.6748V22.6553V22.6357V22.6161V22.5964V22.5767V22.5569V22.537V22.5171V22.4972V22.4772V22.4572V22.4371V22.417V22.3968V22.3766V22.3563V22.336V22.3156V22.2952V22.2748V22.2543V22.2338V22.2132V22.1926V22.1719V22.1512V22.1305V22.1097V22.0889V22.068V22.0471V22.0262V22.0052V21.9842V21.9632V21.9421V21.921V21.8999V21.8787V21.8575V21.8363V21.815V21.7938V21.7724V21.7511V21.7297V21.7083V21.6869V21.6654V21.6439V21.5577V21.5361V21.5145V21.4928V21.4711V21.4494V21.4277V21.406V21.3842V21.3624V21.3406V21.3188V21.297V21.2751V21.2533V21.2314V21.2095V21.1876V21.1657V21.1437V21.1218V16.7249C17.6445 15.868 17.2274 15.0975 16.6927 14.5615C16.158 14.0257 15.3881 13.6066 14.5308 13.6066H14.5247H14.5186H14.5124H14.5063H14.5001H14.4939H14.4877H14.4814H14.4751H14.4688H14.4625H14.4561H14.4498H14.4434H14.437H14.4305H14.4241H14.4176H14.4111H14.4045H14.398H14.3914H14.3848H14.3782H14.3716H14.3649H14.3582H14.3515H14.3448H14.3381H14.3313H14.3245H14.3177H14.3109H14.3041H14.2972H14.2903H14.2834H14.2765H14.2695H14.2626H14.2556H14.2486H14.2415H14.2345H14.2274H14.2203H14.2132H14.2061H14.199H14.1918H14.1846H14.1774H14.1702H14.163H14.1557H14.1484H14.1411H14.1338H14.1265H14.1191H14.1118H14.1044H14.097H14.0896H14.0821H14.0747H14.0672H14.0597H14.0522H14.0447H14.0371H14.0296H14.022H14.0144H14.0068H13.9992H13.9915H13.9839H13.9762H13.9685H13.9608H13.953H13.9453H13.9375H13.9298H13.922H13.9142H13.9064H13.8985H13.8907H13.8828H13.8749H13.867H13.8591H13.8512H13.8432H13.8353H13.8273H13.8193H13.8113H13.8033H13.7953H13.7872H13.7792H13.7711H13.763H13.7549H13.7468H13.7387H13.7306H13.7224H13.7142H13.7061H13.6979H13.6897H13.6814H13.6732H13.665H13.6567H13.6484H13.6401H13.6318H13.6235H13.6152H13.6069H13.5985H13.5902H13.5818H13.5734H13.565H13.5566H13.5482H13.5398H13.5314H13.5229H13.5145H13.506H13.4975H13.489H13.4805H13.472H13.4635H13.4549H13.4464H13.4378H13.4293H13.4207H13.4121H13.4035H13.3949H13.3863H13.3777H13.369H13.3604H13.3517H13.3431H13.3344H13.3257H13.317H13.3083H13.2996H13.2909H13.2822H13.2734H13.2647H13.256H13.2472H13.2384H13.2296H13.2209H13.2121H13.2033H13.1945H13.1857H13.1768H13.168H13.1592H13.1503H13.1415H13.1326H13.1238H13.1149H13.106H13.0971H13.0882H13.0793H13.0704H13.0615H13.0526H13.0437H13.0347H13.0258H13.0169H13.0079H12.999H12.99H12.981H12.9721H12.9631H12.9541H12.9451H12.9361H12.9272H12.9182H12.9092H12.9001H12.8911H12.8821H12.8731H12.8641H12.855H12.846H12.837H12.8279H12.8189H12.8098H12.8008H12.7917H12.7827H12.7736H12.7645H12.7554H12.7464H12.7373H12.7282H12.7191H12.7101H12.701H12.6919H12.6828H12.6737H12.6646H12.6555H12.6464H12.6373H12.6282H12.6191H12.61H12.6009H12.5918H12.5826H12.5735H12.5644H12.5553H12.5462H12.5371H12.5279H12.5188H12.5097H12.5006H12.4915H12.4823H12.4732H12.4641H12.455H12.4458H12.4367H12.4276H12.4185H12.4094H12.4002H12.3911H12.382H12.3729H12.3638H12.3546H12.3455H12.3364H12.3273H12.3182H12.3091H12.3H12.2909H12.2818H12.2726H12.2635H12.2544H12.2453H12.2362H12.2272H12.2181H12.209H12.1999H12.1908H12.1817H12.1726H12.1636H12.1545H12.1454H12.1364H12.1273H12.1182H12.1092H12.1001H12.0911H12.082H12.073H12.0639H12.0549H12.0459H12.0368H12.0278H12.0188H12.0098H12.0008H11.9918H11.9828H11.9738H11.9648H11.9558H11.9468H11.9379H11.9289H11.9199H11.911H11.902H11.8931H11.8841H11.8752H11.8663H11.8573H11.8484H11.8395H11.8306H11.8217H11.8128H11.8039H11.7951H11.7862H11.7773H11.7685H11.7596H11.7508H11.7419H11.7331H11.7243H11.7155H11.7067H11.6979H11.6891H11.6803H11.6715H11.6627H11.654H11.6452H11.6365H11.6278H11.619H11.6103H11.6016H11.5929H11.5842H11.5755H11.5669H11.5582H11.5496H11.5409H11.5323H11.5236H11.515H11.5064H11.4978H11.4892H11.4807H11.4721H11.4635H11.455H11.4465H11.4379H11.4294H11.4209H11.4124H11.404H11.3955H11.387H11.3786H11.3701H11.3617H11.3533H11.3449H11.3365H11.3281H11.3198H11.3114H11.3031H11.2947H11.2864H11.2781H11.2698H11.2615H11.2532H11.245H11.2367H11.2285H11.2203H11.2121H11.2039H11.1957H11.1875H11.1794H11.1712H11.1631H11.155H11.1469H11.1388H11.1308H11.1227H11.1147H11.1066H11.0986H11.0906H11.0826H11.0747H11.0667H11.0588H11.0508H11.0429H11.035H11.0271H11.0193H11.0114H11.0036H10.9958H10.988H10.9802H10.9724H10.9646H10.9569H10.9492H10.9415H10.9338H10.9261H10.9184H10.9108H10.9032H10.8955H10.888H10.8804H10.8728H10.8653H10.8577H10.8502H10.8427H10.8353H10.8278H10.8204H10.813H10.8056H10.7982H10.7908H10.7835H10.7761H10.7688H10.7615H10.7542H10.747H10.7397H10.7325H10.7253H10.7181H10.711H10.7038H10.6967H10.6896H10.6825H10.6755H10.6684H10.6614H10.6544H10.6474H10.6404H10.6335H10.6265H10.6196H10.6127H10.6059H10.599H10.5922H10.5854H10.5786H10.5719H10.5651H10.5584H10.5517H10.545H10.5384H10.5317H10.5251H10.5185H10.5119H10.5054H10.4989H10.4924H10.4859H10.4794H10.473H10.4666H10.4602H10.4538H10.4475H10.4411H10.4348H10.4285H10.4223H10.4161H10.4098H10.4037H10.3975H10.3914H10.3852H10.3791C9.52181 13.6066 8.75194 14.0257 8.21729 14.5615C7.68249 15.0975 7.2654 15.868 7.2654 16.7249V16.7311V16.7374V16.7438V16.7504V16.7571V16.7639V16.7708V16.7779V16.7852V16.7925V16.8V16.8076V16.8154V16.8233V16.8313V16.8394V16.8476V16.856V16.8645V16.8732V16.8819V16.8908V16.8998V16.9089V16.9182V16.9275V16.937V16.9466V16.9564V16.9662V16.9762V16.9863V16.9965V17.0068V17.0172V17.0278V17.0384V17.0492V17.0601V17.0711V17.0822V17.0934V17.1048V17.1162V17.1278V17.1395V17.1513V17.1631V17.1751V17.1873V17.1995V17.2118V17.2242V17.2367V17.2494V17.2621V17.275V17.2879V17.3009V17.3141V17.3273V17.3407V17.3541V17.3677V17.3813V17.3951V17.4089V17.4229V17.4369V17.451V17.4653V17.4796V17.494V17.5085V17.5231V17.5378V17.5526V17.5675V17.5825V17.5975V17.6127V17.6279V17.6432V17.6587V17.6742V17.6898V17.7054V17.7212V17.737V17.753V17.769V17.7851V17.8013V17.8175V17.8339V17.8503V17.8668V17.8834V17.9001V17.9168V17.9336V17.9505V17.9675V17.9845V18.0017V18.0189V18.0361V18.0535V18.0709V18.0884V18.106V18.1236V18.1413V18.1591V18.177V18.1949V18.2129V18.231V18.2491V18.2673V18.2855V18.3039V18.3223V18.3407V18.3592V18.3778V18.3965V18.4152V18.434V18.4528V18.4717V18.4906V18.5096V18.5287V18.5479V18.567V18.5863V18.6056V18.625V18.6444V18.6638V18.6834V18.7029V18.7226V18.7423V18.762V18.7818V18.8016V18.8215V18.8414V18.8614V18.8815V18.9016V18.9217V18.9419V18.9621V18.9824V19.0027V19.023V19.0434V19.0639V19.0844V19.1049V19.1255V19.1461V19.1668V19.1875V19.2082V19.229V19.2498V19.2706V19.2915V19.3125V19.3334V19.3544V19.3754V19.3965V19.4176V19.4387V19.4599V19.4811V19.5023V19.5236V19.5449V19.5662V19.5875V19.6089V19.6303V19.6518V19.6732V19.6947V19.7162V19.7377V19.7593V19.7809V19.8025V19.8241V19.8458V19.8674V19.8891V19.9108V19.9326V19.9543V19.9761V19.9979V20.0197V20.0415V20.0634V20.0852V20.1071V20.129V20.1509V20.1728V20.1947V20.2167V20.2386V20.2606V20.2825V20.3045V20.3265V20.3485V20.3705V20.3925V20.4146V20.4366V20.4586V20.4807V20.5027V20.5248V20.5468V20.5689V20.5909V20.613V20.6351V20.6571V20.6792V20.7013V20.7233V20.7454V20.7674V20.7895V20.8115V20.8336V20.8556V20.8777V20.8997V20.9217V20.9438V20.9658V20.9878V21.0098V21.0318V21.0537V21.0757V21.0977V21.1196V21.1416V21.1635V21.1854V21.2073V21.2292V21.251V21.2729V21.2947V21.3165V21.3383V21.3601V21.3819V21.4036V21.4254V21.4471V21.4688V21.4904V21.5121V21.5337V21.5553V21.5769V21.5984V21.6199V21.6414V21.6629V21.6844V21.7058V21.7272V21.7486V21.7699V21.7912V21.8125V21.8337V21.855V21.8761V21.8973V21.9184V21.9395V21.9606V21.9816V22.0026V22.0235V22.0444V22.0653V22.0862V22.107V22.1277V22.1484V22.1691V22.1898V22.2104V22.2309V22.2515V22.2719V22.2924V22.3128V22.3331V22.3534V22.3737V22.3939V22.4141V22.4342V22.4543V22.4743V22.4943V22.5142V22.534V22.5539V22.5736V22.5934V22.613V22.6327V22.6522V22.6717V22.6912V22.7106V22.7299V22.7492V22.7684V22.7876V22.8067V22.8258V22.8448V22.8637V22.8826V22.9014V22.9202V22.9389V22.9575V22.976V22.9946V23.013V23.0314V23.0497V23.0679V23.0861V23.1042V23.1222V23.1402V23.1581V23.1759V23.1937V23.2114V23.229V23.2466V23.264V23.2814V23.2988V23.316V23.3332V23.3503V23.3673V23.3843V23.4012V23.418V23.4347V23.4513V23.4679V23.4844V23.5008V23.5171V23.5333V23.5495V23.5656V23.5816ZM1.2249 9.60425C1.22481 9.60427 1.2256 9.6024 1.22754 9.59853C1.22596 9.60229 1.22499 9.60422 1.2249 9.60425ZM23.7699 9.56055C23.7697 9.5605 23.7686 9.55813 23.7668 9.55356C23.7691 9.55831 23.77 9.5606 23.7699 9.56055Z" stroke="#fff" stroke-width="2.07583" stroke-linecap="round" stroke-linejoin="round"/>
</svg>
