<svg viewBox="0 0 12 15" fill="none" xmlns="http://www.w3.org/2000/svg">
<path fill-rule="evenodd" clip-rule="evenodd" d="M5.6875 4.08572C4.34131 4.08572 3.25 5.17703 3.25 6.52322C3.25 7.86941 4.34131 8.96072 5.6875 8.96072C7.03369 8.96072 8.125 7.86941 8.125 6.52322C8.125 5.17703 7.03369 4.08572 5.6875 4.08572ZM4.225 6.52322C4.225 5.7155 4.87978 5.06072 5.6875 5.06072C6.49522 5.06072 7.15 5.7155 7.15 6.52322C7.15 7.33094 6.49522 7.98572 5.6875 7.98572C4.87978 7.98572 4.225 7.33094 4.225 6.52322Z" fill="#fff"/>
<path fill-rule="evenodd" clip-rule="evenodd" d="M5.6875 0.18572C2.51333 0.18572 0 2.94352 0 6.26887C0 7.33534 0.529819 8.59116 1.19642 9.76966C1.8738 10.9672 2.73837 12.1628 3.49637 13.1294L3.52166 13.1616C3.89164 13.6335 4.20682 14.0354 4.51246 14.3131C4.84591 14.616 5.21361 14.8143 5.6875 14.8143C6.16139 14.8143 6.52909 14.616 6.86254 14.3131C7.16818 14.0354 7.48337 13.6335 7.85335 13.1616L7.87863 13.1294C8.63663 12.1628 9.5012 10.9672 10.1786 9.76966C10.8452 8.59116 11.375 7.33534 11.375 6.26887C11.375 2.94352 8.86167 0.18572 5.6875 0.18572ZM0.975 6.26887C0.975 3.41343 3.11791 1.16072 5.6875 1.16072C8.25709 1.16072 10.4 3.41343 10.4 6.26887C10.4 7.06609 9.98425 8.13286 9.32994 9.28964C8.68642 10.4273 7.85474 11.5798 7.1114 12.5277C6.70908 13.0408 6.44418 13.3759 6.20697 13.5914C5.99063 13.7879 5.84621 13.8393 5.6875 13.8393C5.52878 13.8393 5.38437 13.7879 5.16803 13.5914C4.93082 13.3759 4.66592 13.0408 4.2636 12.5277C3.52026 11.5798 2.68858 10.4273 2.04506 9.28964C1.39075 8.13286 0.975 7.06609 0.975 6.26887Z" fill="#fff"/>
</svg>
