<svg viewBox="0 0 26 25" fill="none" xmlns="http://www.w3.org/2000/svg">
<path d="M1.45027 12.455C1.45027 14.9955 1.58775 16.9662 1.92929 18.503C2.26822 20.028 2.79414 21.0615 3.52751 21.7949C4.26087 22.5282 5.29434 23.0541 6.81938 23.3931C8.3562 23.7346 10.3268 23.8721 12.8673 23.8721C15.4078 23.8721 17.3785 23.7346 18.9153 23.3931C20.4403 23.0541 21.4738 22.5282 22.2072 21.7949C22.9405 21.0615 23.4664 20.028 23.8054 18.503C24.1469 16.9662 24.2844 14.9955 24.2844 12.455C24.2844 9.91455 24.1469 7.9439 23.8054 6.40708C23.4664 4.88204 22.9405 3.84857 22.2072 3.11521C21.4738 2.38184 20.4403 1.85592 18.9153 1.51699C17.3785 1.17545 15.4078 1.03797 12.8673 1.03797C10.3268 1.03797 8.3562 1.17545 6.81938 1.51699C5.29434 1.85592 4.26087 2.38184 3.52751 3.11521C2.79414 3.84857 2.26822 4.88204 1.92929 6.40708C1.58775 7.9439 1.45027 9.91455 1.45027 12.455Z" stroke="#fff" stroke-width="2.07583" stroke-linecap="round" stroke-linejoin="round"/>
<path d="M10.5313 9.19656L10.8901 10.1705L10.5313 9.19656C10.1035 9.35417 9.76619 9.69143 9.60858 10.1193L7.51178 15.8113C7.05268 17.0575 8.26459 18.2694 9.51084 17.8103L15.2028 15.7135C15.6307 15.5559 15.9679 15.2187 16.1256 14.7908L18.2223 9.09882C18.6814 7.85257 17.4695 6.64066 16.2233 7.09976L10.5313 9.19656Z" stroke="#fff" stroke-width="2.07583" stroke-linecap="round" stroke-linejoin="round"/>
</svg>
