<svg viewBox="0 0 29 29" fill="none" xmlns="http://www.w3.org/2000/svg">
    <path d="M14.5 0C22.5081 0 29 6.49192 29 14.5C29 22.5085 22.5081 29 14.5 29C6.49147 29 0 22.5085 0 14.5C0 6.49192 6.49147 0 14.5 0ZM14.5 27.216C21.4958 27.216 27.1875 21.4958 27.1875 14.4999C27.1875 7.50415 21.4958 1.81244 14.5 1.81244C7.5042 1.81244 1.8125 7.50417 1.8125 14.4999C1.8125 21.4957 7.5042 27.216 14.5 27.216ZM8.15625 13.5938H13.5938V8.15625C13.5938 7.656 13.9998 7.25 14.5 7.25C15.0002 7.25 15.4062 7.656 15.4062 8.15625V13.5938H20.8438C21.344 13.5938 21.75 13.9998 21.75 14.5C21.75 15.0002 21.344 15.4062 20.8438 15.4062H15.4062V20.8438C15.4062 21.344 15.0002 21.75 14.5 21.75C13.9998 21.75 13.5938 21.344 13.5938 20.8438V15.4062H8.15625C7.656 15.4062 7.25 15.0002 7.25 14.5C7.25 13.9998 7.656 13.5938 8.15625 13.5938Z"
          fill="#fff"/>
</svg>
