<svg viewBox="0 0 32 31" fill="#fff" xmlns="http://www.w3.org/2000/svg">
    <path fill-rule="evenodd" clip-rule="evenodd"
          d="M24.0889 21.4179L26.4371 12.4806L23.0054 14.6661C22.3211 15.1024 21.493 15.253 20.699 15.0855C19.9049 14.918 19.2082 14.4458 18.7584 13.7702L16.5001 10.3773L14.2402 13.7718C13.7902 14.4471 13.0933 14.919 12.2993 15.0862C11.5052 15.2534 10.6773 15.1026 9.99316 14.6661L6.56455 12.4806L8.91281 21.4179H24.0889ZM7.39535 11.1724C6.2065 10.4145 4.70455 11.5103 5.0626 12.8743L7.41241 21.8116C7.49939 22.1429 7.69364 22.436 7.9648 22.6452C8.23597 22.8544 8.56878 22.9679 8.91126 22.9679H24.0889C24.4313 22.9679 24.7641 22.8544 25.0353 22.6452C25.3065 22.436 25.5007 22.1429 25.5877 21.8116L27.9375 12.8743C28.294 11.5103 26.7936 10.416 25.6048 11.1724L22.1731 13.3579C21.8311 13.5762 21.4172 13.6518 21.0202 13.5683C20.6231 13.4848 20.2747 13.249 20.0496 12.9115L17.7897 9.51703C17.6481 9.30475 17.4563 9.13069 17.2314 9.01031C17.0064 8.88992 16.7552 8.82693 16.5001 8.82693C16.2449 8.82693 15.9937 8.88992 15.7687 9.01031C15.5438 9.13069 15.352 9.30475 15.2105 9.51703L12.9506 12.9115C12.7257 13.2493 12.3773 13.4854 11.9803 13.5692C11.5832 13.6529 11.1692 13.5776 10.8271 13.3595L7.39535 11.1724Z"
          fill="#fff"/>
    <path d="M17.9632 6.11478C17.9636 6.50326 17.8097 6.87599 17.5353 7.15097C17.2609 7.42595 16.8885 7.58067 16.5 7.58108C16.1116 7.58149 15.7388 7.42757 15.4638 7.15316C15.1889 6.87876 15.0341 6.50636 15.0337 6.11788C15.0333 5.72941 15.1873 5.35668 15.4617 5.08169C15.7361 4.80671 16.1085 4.65199 16.4969 4.65158C16.8854 4.65117 17.2581 4.8051 17.5331 5.0795C17.8081 5.3539 17.9628 5.72631 17.9632 6.11478ZM29.675 9.04583C29.6752 9.43431 29.5211 9.80695 29.2466 10.0818C28.972 10.3566 28.5995 10.5112 28.2111 10.5114C27.8226 10.5116 27.4499 10.3574 27.1751 10.0829C26.9003 9.80834 26.7457 9.43586 26.7455 9.04738C26.7455 8.65891 26.8999 8.28634 27.1746 8.01165C27.4492 7.73695 27.8218 7.58263 28.2103 7.58263C28.5988 7.58263 28.9713 7.73695 29.246 8.01165C29.5207 8.28634 29.675 8.65736 29.675 9.04583ZM6.25299 9.04583C6.25309 9.23818 6.2153 9.42867 6.14179 9.60643C6.06827 9.78418 5.96046 9.94571 5.82452 10.0818C5.68858 10.2179 5.52716 10.3259 5.34949 10.3996C5.17182 10.4733 4.98136 10.5113 4.78901 10.5114C4.59666 10.5115 4.40617 10.4737 4.22842 10.4002C4.05067 10.3266 3.88914 10.2188 3.75305 10.0829C3.61696 9.94695 3.50898 9.78553 3.43528 9.60786C3.36158 9.43019 3.32359 9.23973 3.32349 9.04738C3.32349 8.65891 3.47781 8.28634 3.7525 8.01165C4.0272 7.73695 4.39976 7.58263 4.78824 7.58263C5.17671 7.58263 5.54928 7.73695 5.82397 8.01165C6.09866 8.28634 6.25299 8.65736 6.25299 9.04583Z"
          fill="#fff"/>
    <path fill-rule="evenodd" clip-rule="evenodd"
          d="M9.13745 24.8C9.13745 24.5944 9.2191 24.3973 9.36444 24.252C9.50978 24.1066 9.70691 24.025 9.91245 24.025H23.4548C23.6603 24.025 23.8575 24.1066 24.0028 24.252C24.1481 24.3973 24.2298 24.5944 24.2298 24.8C24.2298 25.0055 24.1481 25.2026 24.0028 25.348C23.8575 25.4933 23.6603 25.575 23.4548 25.575H9.91245C9.70691 25.575 9.50978 25.4933 9.36444 25.348C9.2191 25.2026 9.13745 25.0055 9.13745 24.8Z"
          fill="#fff"/>
    <path fill-rule="evenodd" clip-rule="evenodd"
          d="M23.0889 21.4179L25.4371 12.4806L22.0054 14.6661C21.3211 15.1024 20.493 15.253 19.699 15.0855C18.9049 14.918 18.2082 14.4458 17.7584 13.7702L15.5001 10.3773L13.2402 13.7718C12.7902 14.4471 12.0933 14.919 11.2993 15.0862C10.5052 15.2534 9.67726 15.1026 8.99316 14.6661L5.56455 12.4806L7.91281 21.4179H23.0889ZM6.39535 11.1724C5.2065 10.4145 3.70455 11.5103 4.0626 12.8743L6.41241 21.8116C6.49939 22.1429 6.69364 22.436 6.9648 22.6452C7.23597 22.8544 7.56878 22.9679 7.91126 22.9679H23.0889C23.4313 22.9679 23.7641 22.8544 24.0353 22.6452C24.3065 22.436 24.5007 22.1429 24.5877 21.8116L26.9375 12.8743C27.294 11.5103 25.7936 10.416 24.6048 11.1724L21.1731 13.3579C20.8311 13.5762 20.4172 13.6518 20.0202 13.5683C19.6231 13.4848 19.2747 13.249 19.0496 12.9115L16.7897 9.51703C16.6481 9.30475 16.4563 9.13069 16.2314 9.01031C16.0064 8.88992 15.7552 8.82693 15.5001 8.82693C15.2449 8.82693 14.9937 8.88992 14.7687 9.01031C14.5438 9.13069 14.352 9.30475 14.2105 9.51703L11.9506 12.9115C11.7257 13.2493 11.3773 13.4854 10.9803 13.5692C10.5832 13.6529 10.1692 13.5776 9.82706 13.3595L6.39535 11.1724Z"
          fill="#ff"/>
    <path d="M17.7882 6.10343C17.7886 6.4919 17.6347 6.86463 17.3603 7.13962C17.0859 7.4146 16.7135 7.56932 16.325 7.56973C15.9365 7.57014 15.5638 7.41621 15.2888 7.14181C15.0138 6.86741 14.8591 6.495 14.8587 6.10653C14.8583 5.71805 15.0122 5.34532 15.2866 5.07034C15.561 4.79536 15.9334 4.64064 16.3219 4.64023C16.7104 4.63982 17.0831 4.79375 17.3581 5.06815C17.6331 5.34255 17.7878 5.71495 17.7882 6.10343ZM29.5 9.03448C29.5002 9.42295 29.3461 9.7956 29.0715 10.0704C28.797 10.3453 28.4245 10.4998 28.036 10.5C27.6475 10.5002 27.2749 10.3461 27.0001 10.0715C26.7252 9.79699 26.5707 9.4245 26.5705 9.03603C26.5705 8.64755 26.7248 8.27499 26.9995 8.00029C27.2742 7.7256 27.6468 7.57128 28.0352 7.57128C28.4237 7.57128 28.7963 7.7256 29.071 8.00029C29.3457 8.27499 29.5 8.646 29.5 9.03448ZM6.07794 9.03448C6.07804 9.22683 6.04025 9.41732 5.96674 9.59507C5.89322 9.77282 5.78541 9.93435 5.64947 10.0704C5.51353 10.2065 5.35211 10.3145 5.17444 10.3882C4.99677 10.4619 4.80632 10.4999 4.61396 10.5C4.42161 10.5001 4.23112 10.4623 4.05337 10.3888C3.87562 10.3153 3.71409 10.2075 3.578 10.0715C3.44191 9.93559 3.33394 9.77418 3.26023 9.5965C3.18653 9.41883 3.14854 9.22838 3.14844 9.03603C3.14844 8.64755 3.30276 8.27499 3.57745 8.00029C3.85215 7.7256 4.22471 7.57128 4.61319 7.57128C5.00166 7.57128 5.37423 7.7256 5.64892 8.00029C5.92362 8.27499 6.07794 8.646 6.07794 9.03448Z"
          fill="#fff"/>
    <path fill-rule="evenodd" clip-rule="evenodd"
          d="M8.13745 24.8C8.13745 24.5945 8.2191 24.3973 8.36444 24.252C8.50978 24.1066 8.70691 24.025 8.91245 24.025H22.4548C22.6603 24.025 22.8575 24.1066 23.0028 24.252C23.1481 24.3973 23.2298 24.5945 23.2298 24.8C23.2298 25.0055 23.1481 25.2027 23.0028 25.348C22.8575 25.4933 22.6603 25.575 22.4548 25.575H8.91245C8.70691 25.575 8.50978 25.4933 8.36444 25.348C8.2191 25.2027 8.13745 25.0055 8.13745 24.8Z"
          fill="#fff"/>
</svg>
