<svg viewBox="0 0 34 34" fill="none" xmlns="http://www.w3.org/2000/svg">
<path d="M5.66683 29.75C4.88766 29.75 4.22089 29.4728 3.6665 28.9184C3.11211 28.364 2.83444 27.6968 2.8335 26.9166V11.3333C2.8335 10.5541 3.11116 9.88737 3.6665 9.33298C4.22183 8.77859 4.88861 8.50092 5.66683 8.49998H11.3335V5.66665C11.3335 4.88748 11.6112 4.2207 12.1665 3.66631C12.7218 3.11192 13.3886 2.83426 14.1668 2.83331H19.8335C20.6127 2.83331 21.2799 3.11098 21.8352 3.66631C22.3906 4.22165 22.6678 4.88842 22.6668 5.66665V8.49998H28.3335C29.1127 8.49998 29.7799 8.77765 30.3352 9.33298C30.8906 9.88831 31.1678 10.5551 31.1668 11.3333V15.5833C31.1668 15.9847 31.0308 16.3153 30.7588 16.575C30.4868 16.8347 30.1506 16.9646 29.7502 16.9646C29.3488 16.9646 29.0126 16.829 28.7415 16.558C28.4704 16.2869 28.3344 15.9502 28.3335 15.5479V11.3333H5.66683V26.9166H14.8752C15.2766 26.9166 15.6132 27.0526 15.8852 27.3246C16.1572 27.5966 16.2928 27.9329 16.2918 28.3333C16.2918 28.7347 16.1558 29.0714 15.8838 29.3434C15.6118 29.6154 15.2756 29.7509 14.8752 29.75H5.66683ZM14.1668 8.49998H19.8335V5.66665H14.1668V8.49998ZM25.5002 32.5833C23.5404 32.5833 21.8702 31.8925 20.4894 30.5107C19.1086 29.129 18.4178 27.4588 18.4168 25.5C18.4168 23.5403 19.1077 21.87 20.4894 20.4892C21.8711 19.1085 23.5414 18.4176 25.5002 18.4166C27.4599 18.4166 29.1306 19.1075 30.5123 20.4892C31.8941 21.871 32.5844 23.5412 32.5835 25.5C32.5835 27.4597 31.8926 29.1304 30.5109 30.5121C29.1292 31.8939 27.4589 32.5843 25.5002 32.5833ZM26.2085 25.2166V21.9583C26.2085 21.7694 26.1377 21.6041 25.996 21.4625C25.8543 21.3208 25.6891 21.25 25.5002 21.25C25.3113 21.25 25.146 21.3208 25.0043 21.4625C24.8627 21.6041 24.7918 21.7694 24.7918 21.9583V25.1812C24.7918 25.3701 24.8272 25.5533 24.8981 25.7309C24.9689 25.9085 25.0752 26.0676 25.2168 26.2083L27.3418 28.3333C27.4835 28.475 27.6488 28.5458 27.8377 28.5458C28.0266 28.5458 28.1918 28.475 28.3335 28.3333C28.4752 28.1916 28.546 28.0264 28.546 27.8375C28.546 27.6486 28.4752 27.4833 28.3335 27.3416L26.2085 25.2166Z" fill="#fff"/>
</svg>
