<svg viewBox="0 0 36 36" fill="none" xmlns="http://www.w3.org/2000/svg">
    <g clip-path="url(#clip0_16_3542)">
        <path d="M31.4648 30.1816C32.6133 30.7441 33.5625 31.5352 34.3125 32.5547C35.0625 33.5742 35.5371 34.7227 35.7363 36H33.8027C33.6738 35.332 33.4336 34.7109 33.082 34.1367C32.7305 33.5625 32.3027 33.0703 31.7988 32.6602C31.2949 32.25 30.7266 31.9219 30.0938 31.6758C29.4609 31.4297 28.8047 31.3125 28.125 31.3242C27.4336 31.3242 26.7773 31.4414 26.1562 31.6758C25.5352 31.9102 24.9668 32.2324 24.4512 32.6426C23.9355 33.0527 23.5078 33.5508 23.168 34.1367C22.8281 34.7227 22.5879 35.3438 22.4473 36H20.5137C20.7012 34.7344 21.1699 33.5918 21.9199 32.5723C22.6699 31.5527 23.625 30.7559 24.7852 30.1816C24.1172 29.6543 23.6016 29.0156 23.2383 28.2656C22.875 27.5156 22.6875 26.7188 22.6758 25.875C22.6758 25.3477 22.7461 24.8379 22.8867 24.3457C23.0273 23.8535 23.2383 23.3906 23.5195 22.957C23.8008 22.5234 24.1348 22.1367 24.5215 21.7969C24.9082 21.457 25.3418 21.1699 25.8223 20.9355C25.5059 20.4785 25.1426 20.0742 24.7324 19.7227C24.3223 19.3711 23.877 19.0605 23.3965 18.791C22.916 18.5215 22.4121 18.3281 21.8848 18.2109C21.3574 18.0938 20.8125 18.0234 20.25 18C19.3125 18 18.416 18.1816 17.5605 18.5449C16.7051 18.9082 15.9609 19.4414 15.3281 20.1445C15.6094 20.9063 15.75 21.6914 15.75 22.5C15.75 23.5781 15.5098 24.5918 15.0293 25.541C14.5488 26.4902 13.875 27.2871 13.0078 27.9316C13.7695 28.3184 14.4551 28.793 15.0645 29.3555C15.6738 29.918 16.2012 30.5508 16.6465 31.2539C17.0918 31.957 17.4258 32.707 17.6484 33.5039C17.8711 34.3008 17.9883 35.1328 18 36H15.75C15.75 35.0742 15.5742 34.2012 15.2227 33.3809C14.8711 32.5606 14.3906 31.8457 13.7812 31.2363C13.1719 30.627 12.4512 30.1406 11.6191 29.7773C10.7871 29.4141 9.91406 29.2383 9 29.25C8.0625 29.25 7.18945 29.4258 6.38086 29.7773C5.57227 30.1289 4.85742 30.6094 4.23633 31.2188C3.61523 31.8281 3.12891 32.5488 2.77734 33.3809C2.42578 34.2129 2.25 35.0859 2.25 36H0C0 35.1445 0.117188 34.3184 0.351562 33.5215C0.585938 32.7246 0.919922 31.9746 1.35352 31.2715C1.78711 30.5684 2.30859 29.9355 2.91797 29.373C3.52734 28.8105 4.21875 28.3301 4.99219 27.9316C4.125 27.2871 3.45117 26.4902 2.9707 25.541C2.49023 24.5918 2.25 23.5781 2.25 22.5C2.25 21.5742 2.42578 20.7012 2.77734 19.8809C3.12891 19.0605 3.60938 18.3457 4.21875 17.7363C4.82812 17.127 5.54297 16.6406 6.36328 16.2773C7.18359 15.9141 8.0625 15.7383 9 15.75C9.99609 15.75 10.9395 15.9609 11.8301 16.3828C12.7207 16.8047 13.4941 17.3906 14.1504 18.1406C14.4551 17.8477 14.7832 17.584 15.1348 17.3496C15.4863 17.1152 15.8555 16.8926 16.2422 16.6816C15.375 16.0371 14.7012 15.2402 14.2207 14.291C13.7402 13.3418 13.5 12.3281 13.5 11.25C13.5 10.3242 13.6758 9.45117 14.0273 8.63086C14.3789 7.81055 14.8594 7.0957 15.4688 6.48633C16.0781 5.87695 16.793 5.39063 17.6133 5.02734C18.4336 4.66406 19.3125 4.48828 20.25 4.5C21.1758 4.5 22.0488 4.67578 22.8691 5.02734C23.6895 5.37891 24.4043 5.85938 25.0137 6.46875C25.623 7.07813 26.1094 7.79883 26.4727 8.63086C26.8359 9.46289 27.0117 10.3359 27 11.25C27 12.3281 26.7598 13.3418 26.2793 14.291C25.7988 15.2402 25.125 16.0371 24.2578 16.6816C25.0781 17.1152 25.8164 17.6426 26.4727 18.2637C27.1289 18.8848 27.6855 19.6055 28.1426 20.4258C28.8926 20.4258 29.5957 20.5664 30.252 20.8477C30.9082 21.1289 31.4883 21.5215 31.9922 22.0254C32.4961 22.5293 32.8828 23.1035 33.1523 23.748C33.4219 24.3926 33.5625 25.1016 33.5742 25.875C33.5742 26.7188 33.3926 27.5156 33.0293 28.2656C32.666 29.0156 32.1445 29.6543 31.4648 30.1816ZM9 27C9.62109 27 10.2012 26.8828 10.7402 26.6484C11.2793 26.4141 11.7598 26.0918 12.1816 25.6816C12.6035 25.2715 12.9258 24.7969 13.1484 24.2578C13.3711 23.7188 13.4883 23.1328 13.5 22.5C13.5 21.8789 13.3828 21.2988 13.1484 20.7598C12.9141 20.2207 12.5918 19.7402 12.1816 19.3184C11.7715 18.8965 11.2969 18.5742 10.7578 18.3516C10.2188 18.1289 9.63281 18.0117 9 18C8.37891 18 7.79883 18.1172 7.25977 18.3516C6.7207 18.5859 6.24023 18.9082 5.81836 19.3184C5.39648 19.7285 5.07422 20.2031 4.85156 20.7422C4.62891 21.2813 4.51172 21.8672 4.5 22.5C4.5 23.1211 4.61719 23.7012 4.85156 24.2402C5.08594 24.7793 5.4082 25.2598 5.81836 25.6816C6.22852 26.1035 6.70312 26.4258 7.24219 26.6484C7.78125 26.8711 8.36719 26.9883 9 27ZM15.75 11.25C15.75 11.8711 15.8672 12.4512 16.1016 12.9902C16.3359 13.5293 16.6582 14.0098 17.0684 14.4316C17.4785 14.8535 17.9531 15.1758 18.4922 15.3984C19.0312 15.6211 19.6172 15.7383 20.25 15.75C20.8711 15.75 21.4512 15.6328 21.9902 15.3984C22.5293 15.1641 23.0098 14.8418 23.4316 14.4316C23.8535 14.0215 24.1758 13.5469 24.3984 13.0078C24.6211 12.4688 24.7383 11.8828 24.75 11.25C24.75 10.6289 24.6328 10.0488 24.3984 9.50977C24.1641 8.9707 23.8418 8.49023 23.4316 8.06836C23.0215 7.64648 22.5469 7.32422 22.0078 7.10156C21.4688 6.87891 20.8828 6.76172 20.25 6.75C19.6289 6.75 19.0488 6.86719 18.5098 7.10156C17.9707 7.33594 17.4902 7.6582 17.0684 8.06836C16.6465 8.47852 16.3242 8.95313 16.1016 9.49219C15.8789 10.0313 15.7617 10.6172 15.75 11.25ZM28.125 22.3242C27.6328 22.3242 27.1758 22.418 26.7539 22.6055C26.332 22.793 25.957 23.0449 25.6289 23.3613C25.3008 23.6777 25.043 24.0527 24.8555 24.4863C24.668 24.9199 24.5742 25.3828 24.5742 25.875C24.5742 26.3672 24.668 26.8242 24.8555 27.2461C25.043 27.668 25.2949 28.043 25.6113 28.3711C25.9277 28.6992 26.3027 28.957 26.7363 29.1445C27.1699 29.332 27.6328 29.4258 28.125 29.4258C28.6172 29.4258 29.0742 29.332 29.4961 29.1445C29.918 28.957 30.293 28.7051 30.6211 28.3887C30.9492 28.0723 31.207 27.6973 31.3945 27.2637C31.582 26.8301 31.6758 26.3672 31.6758 25.875C31.6758 25.3828 31.582 24.9258 31.3945 24.5039C31.207 24.082 30.9551 23.707 30.6387 23.3789C30.3223 23.0508 29.9473 22.793 29.5137 22.6055C29.0801 22.418 28.6172 22.3242 28.125 22.3242Z"
              fill="#fff"/>
    </g>
    <defs>
        <clipPath id="clip0_16_3542">
            <rect width="36" height="36" fill="white"/>
        </clipPath>
    </defs>
</svg>
