<svg viewBox="0 0 34 30" fill="none" xmlns="http://www.w3.org/2000/svg">
    <path d="M18.3663 3.2993L16.9985 4.67013L15.6263 3.29805C12.1279 -0.200386 6.45578 -0.200386 2.95733 3.29805C-0.541116 6.7965 -0.541116 12.4687 2.95733 15.967L16.1163 29.126C16.6045 29.6142 17.3958 29.6142 17.884 29.126L31.0532 15.9647C34.5438 12.4545 34.5498 6.79838 31.0507 3.2993C27.5458 -0.205519 21.8712 -0.205519 18.3663 3.2993ZM29.2805 14.2017L17.0002 26.4743L4.7251 14.1993C2.20297 11.6772 2.20297 7.58796 4.7251 5.06581C7.24723 2.54368 11.3364 2.54368 13.8585 5.06581L16.121 7.32823C16.6173 7.82466 17.4252 7.815 17.9097 7.30681L20.134 5.06706C22.6625 2.53856 26.7545 2.53855 29.283 5.06706C31.8057 7.5898 31.8013 11.6668 29.2805 14.2017Z"
          fill="#fff"/>
</svg>
