<svg viewBox="0 0 53 53" fill="none" xmlns="http://www.w3.org/2000/svg">
<path fill-rule="evenodd" clip-rule="evenodd" d="M26.5 0.25C12.0021 0.25 0.25 12.0021 0.25 26.5C0.25 40.9979 12.0021 52.75 26.5 52.75C40.9979 52.75 52.75 40.9979 52.75 26.5C52.75 12.0021 40.9979 0.25 26.5 0.25ZM17.3125 19.9375C17.3125 18.731 17.5501 17.5363 18.0119 16.4216C18.4736 15.3069 19.1503 14.2941 20.0035 13.441C20.8566 12.5878 21.8694 11.9111 22.9841 11.4494C24.0988 10.9876 25.2935 10.75 26.5 10.75C27.7065 10.75 28.9012 10.9876 30.0159 11.4494C31.1306 11.9111 32.1434 12.5878 32.9965 13.441C33.8497 14.2941 34.5264 15.3069 34.9881 16.4216C35.4499 17.5363 35.6875 18.731 35.6875 19.9375C35.6875 22.3742 34.7195 24.7111 32.9965 26.434C31.2736 28.157 28.9367 29.125 26.5 29.125C24.0633 29.125 21.7264 28.157 20.0035 26.434C18.2805 24.7111 17.3125 22.3742 17.3125 19.9375ZM42.9272 39.583C40.9623 42.0548 38.4642 44.0506 35.6197 45.4215C32.7752 46.7924 29.6576 47.5029 26.5 47.5C23.3424 47.5029 20.2248 46.7924 17.3803 45.4215C14.5358 44.0506 12.0377 42.0548 10.0728 39.583C14.3279 36.5301 20.1344 34.375 26.5 34.375C32.8656 34.375 38.6721 36.5301 42.9272 39.583Z" fill="#fff"/>
</svg>
