<svg viewBox="0 0 36 36" fill="none" xmlns="http://www.w3.org/2000/svg">
<path d="M5.625 10.6875V28.6875C5.62723 29.4327 5.92426 30.1468 6.45122 30.6738C6.97819 31.2007 7.69226 31.4978 8.4375 31.5H27.5625C28.3077 31.4978 29.0218 31.2007 29.5488 30.6738C30.0757 30.1468 30.3728 29.4327 30.375 28.6875V10.6875" stroke="#fff" stroke-width="2.25" stroke-linecap="round" stroke-linejoin="round"/>
<path d="M30.6562 4.5H5.34375C4.25644 4.5 3.375 5.38144 3.375 6.46875V8.15625C3.375 9.24356 4.25644 10.125 5.34375 10.125H30.6562C31.7436 10.125 32.625 9.24356 32.625 8.15625V6.46875C32.625 5.38144 31.7436 4.5 30.6562 4.5Z" stroke="#fff" stroke-width="2.25" stroke-linejoin="round"/>
<path d="M22.5 21.375L18 25.875L13.5 21.375M18 24.3204V15.75" stroke="#fff" stroke-width="2.25" stroke-linecap="round" stroke-linejoin="round"/>
</svg>
