<svg viewBox="0 0 24 24" fill="none" xmlns="http://www.w3.org/2000/svg">
    <path d="M1.33325 20C1.33325 18.5855 1.89515 17.2289 2.89535 16.2288C3.89554 15.2286 5.2521 14.6667 6.66659 14.6667H17.3333C18.7477 14.6667 20.1043 15.2286 21.1045 16.2288C22.1047 17.2289 22.6666 18.5855 22.6666 20C22.6666 20.7072 22.3856 21.3855 21.8855 21.8856C21.3854 22.3857 20.7072 22.6667 19.9999 22.6667H3.99992C3.29267 22.6667 2.6144 22.3857 2.1143 21.8856C1.6142 21.3855 1.33325 20.7072 1.33325 20Z"
          stroke="#fff" stroke-width="2.66667" stroke-linejoin="round"/>
    <path d="M12 9.33334C14.2091 9.33334 16 7.54248 16 5.33334C16 3.1242 14.2091 1.33334 12 1.33334C9.79086 1.33334 8 3.1242 8 5.33334C8 7.54248 9.79086 9.33334 12 9.33334Z"
          stroke="#fff" stroke-width="2.66667"/>
</svg>
